# Blender v2.79 (sub 0) OBJ File: 'pouet2.blend'
# www.blender.org
mtllib cube_texture.mtl
o Cube.074_Cube.115
v -15.912086 -15.912086 15.912086
v -15.912086 15.912086 15.912086
v -15.912086 -15.912086 -15.912086
v -15.912086 15.912086 -15.912086
v 15.912086 -15.912086 15.912086
v 15.912086 15.912086 15.912086
v 15.912086 -15.912086 -15.912086
v 15.912086 15.912086 -15.912086
vt 0.000200 0.999800
vt 0.000200 0.666866
vt 0.333134 0.666866
vt 0.333134 0.999800
vt 0.666866 0.333134
vt 0.666866 0.000200
vt 0.999800 0.000200
vt 0.999800 0.333134
vt 0.333134 0.333533
vt 0.333134 0.666467
vt 0.000200 0.666467
vt 0.000200 0.333533
vt 0.666467 0.333533
vt 0.666467 0.666467
vt 0.333533 0.666467
vt 0.333533 0.333533
vt 0.666467 0.333134
vt 0.333533 0.333134
vt 0.333533 0.000200
vt 0.666467 0.000200
vt 0.333134 0.333134
vt 0.000200 0.333134
vt 0.000200 0.000200
vt 0.333134 0.000200
vn -1.0000 0.0000 0.0000
vn 0.0000 0.0000 -1.0000
vn 1.0000 0.0000 0.0000
vn 0.0000 0.0000 1.0000
vn 0.0000 -1.0000 0.0000
vn 0.0000 1.0000 0.0000
usemtl testMat
s off
f 1/1/1 2/2/1 4/3/1 3/4/1
f 3/5/2 4/6/2 8/7/2 7/8/2
f 7/9/3 8/10/3 6/11/3 5/12/3
f 5/13/4 6/14/4 2/15/4 1/16/4
f 3/17/5 7/18/5 5/19/5 1/20/5
f 8/21/6 4/22/6 2/23/6 6/24/6
