# Blender v2.79 (sub 0) OBJ File: 'pouet3.blend'
# www.blender.org
mtllib scenery_border_1.mtl
o Plane.024_Plane.043
v 40.000000 0.000000 40.000000
v 44.111397 -17.601898 39.999996
v 29.787302 22.904900 40.000004
v 33.256287 37.937180 40.000004
v 30.429707 45.260597 40.000004
v 0.622113 59.996452 40.000008
v -40.000000 61.824039 40.000000
v 40.000000 0.000000 -360.000000
v 44.111397 -17.601898 -360.000000
v 29.787302 22.904900 -360.000000
v 33.256287 37.937180 -360.000000
v 30.429707 45.260597 -360.000000
v 0.622113 59.996452 -360.000000
v -40.000000 61.824039 -360.000000
v 30.429707 45.260597 -3.888886
v 33.976902 44.155945 -48.334534
v 27.132420 43.871387 -92.958977
v 25.820045 39.463219 -139.697449
v 27.497231 44.830566 -182.455765
v 27.130527 50.581619 -228.178894
v 30.665199 46.653923 -271.119507
v 32.087044 45.260597 -315.000031
v 2.279448 59.996452 -315.000000
v 0.736753 60.674736 -270.830078
v -2.747115 62.942272 -227.303391
v -2.869246 59.550720 -181.974121
v -5.205550 56.642143 -139.310135
v -3.048456 59.296108 -92.840263
v 2.840258 59.989544 -47.784340
v 0.622113 59.996452 -3.888877
v 29.787302 22.904900 -3.888886
v 32.957848 22.111347 -48.178612
v 26.418459 22.272863 -92.936234
v 24.635506 18.780977 -139.525055
v 25.988976 22.919266 -182.050140
v 23.299400 27.255228 -227.002731
v 29.283775 23.869600 -270.773376
v 31.444637 22.904900 -315.000031
v 34.913624 37.937180 -315.000000
v 33.444954 39.238174 -271.074036
v 29.167711 43.159374 -227.938782
v 30.233437 37.623478 -182.396973
v 28.557499 32.369492 -139.669083
v 29.973076 36.724373 -92.963440
v 36.969666 36.695267 -48.403320
v 33.256287 37.937180 -3.888881
v 44.111397 -17.601898 -3.888893
v 46.321178 -17.601898 -47.780895
v 40.244278 -17.601898 -92.777786
v 36.962524 -17.553917 -138.890030
v 38.858662 -17.418571 -181.374023
v 34.391518 -16.827534 -224.874939
v 42.736359 -17.419971 -270.265137
v 45.768730 -17.601898 -315.000031
v 41.657333 0.000000 -315.000000
v 38.069191 0.255461 -270.147736
v 29.027180 1.482261 -224.805969
v 34.291260 0.324204 -181.283081
v 33.445015 -0.045418 -139.078857
v 36.143112 0.014911 -92.781021
v 42.209782 0.000000 -47.780880
v 40.000000 0.000000 -3.888886
v -40.000000 61.824039 -315.000000
v -40.000000 61.824039 -270.555542
v -39.999985 61.824127 -226.111145
v -40.000000 61.824039 -181.666656
v -39.996361 61.757740 -137.223373
v -40.000000 61.824039 -92.777771
v -40.000000 61.824039 -48.333324
v -40.000000 61.824039 -3.888886
v -40.000000 0.000000 40.000000
v -40.000000 0.000000 -360.000000
v -40.000000 0.000000 -315.000000
v -40.000000 0.000000 -270.555542
v -40.000000 0.000000 -226.111115
v -40.000000 0.000000 -181.666656
v -40.000000 0.000000 -137.222214
v -40.000000 0.000000 -92.777771
v -40.000000 0.000000 -48.333324
v -40.000000 0.000000 -3.888886
v -40.000000 -17.601898 40.000000
v -40.000000 -17.601898 -360.000000
v -40.000000 -17.601898 -315.000000
v -40.000000 -17.601898 -270.555542
v -40.000000 -17.601898 -226.111115
v -40.000000 -17.601898 -181.666656
v -40.000000 -17.601898 -137.222214
v -40.000000 -17.601898 -92.777771
v -40.000000 -17.601898 -48.333324
v -40.000000 -17.601898 -3.888886
vn 0.2490 0.9685 -0.0079
vn 0.4384 0.8987 -0.0115
vn 0.4431 0.8963 -0.0163
vn 0.2444 0.9696 -0.0086
vn 0.9981 0.0616 -0.0010
vn 0.9962 0.0867 0.0083
vn 0.9948 0.0954 -0.0366
vn 0.9968 0.0712 -0.0367
vn 0.9494 0.3138 0.0139
vn 0.9720 0.2343 0.0171
vn 0.9732 0.2273 -0.0358
vn 0.9470 0.3193 -0.0349
vn 0.0399 0.9992 -0.0039
vn 0.0440 0.9990 -0.0008
vn 0.9338 0.3578 -0.0070
vn 0.9324 0.3599 -0.0343
vn 0.9954 0.0962 0.0000
vn 0.9478 0.3188 0.0000
vn 0.9482 0.3165 0.0255
vn 0.9957 0.0861 0.0349
vn 0.9498 0.3104 -0.0388
vn 0.9960 0.0808 -0.0380
vn 0.9456 0.3108 -0.0958
vn 0.9937 0.0677 -0.0896
vn 0.9509 0.3091 -0.0117
vn 0.9963 0.0857 -0.0057
vn 0.9574 0.2878 -0.0231
vn 0.9995 0.0154 -0.0260
vn 0.9610 0.2745 0.0347
vn 0.9989 -0.0292 0.0366
vn 0.9494 0.2931 0.1125
vn 0.9942 0.0375 0.1012
vn 0.9329 0.3601 0.0000
vn 0.9975 0.0707 0.0000
vn 0.9968 0.0706 0.0387
vn 0.9313 0.3628 0.0325
vn 0.9976 0.0589 -0.0376
vn 0.9289 0.3684 -0.0383
vn 0.9929 0.0689 -0.0971
vn 0.9249 0.3661 -0.1029
vn 0.9996 0.0279 0.0023
vn 0.9324 0.3612 0.0105
vn 0.9998 0.0195 0.0083
vn 0.9419 0.3321 0.0500
vn 0.9989 0.0220 0.0410
vn 0.9499 0.3099 0.0412
vn 0.9973 0.0269 0.0688
vn 0.9426 0.3315 0.0398
vn 0.0449 0.9990 0.0000
vn 0.2494 0.9684 0.0000
vn 0.2474 0.9689 0.0047
vn 0.0444 0.9990 0.0005
vn 0.2664 0.9637 -0.0177
vn 0.0493 0.9988 -0.0052
vn 0.2695 0.9617 -0.0504
vn 0.0798 0.9966 -0.0218
vn 0.2867 0.9580 0.0072
vn 0.1042 0.9946 0.0009
vn 0.2552 0.9644 0.0698
vn 0.0601 0.9975 0.0373
vn 0.2056 0.9785 0.0178
vn 0.0083 0.9999 0.0066
vn 0.2262 0.9739 -0.0186
vn 0.0178 0.9997 -0.0164
vn 0.9738 0.2275 0.0000
vn 0.9735 0.2274 0.0246
vn 0.9730 0.2271 -0.0403
vn 0.9710 0.2184 -0.0973
vn 0.9759 0.2176 -0.0156
vn 0.9690 0.2445 -0.0342
vn 0.9630 0.2666 0.0389
vn 0.9600 0.2521 0.1220
vn 0.4432 0.8964 0.0000
vn 0.4459 0.8950 0.0092
vn 0.4508 0.8922 -0.0277
vn 0.4599 0.8845 -0.0788
vn 0.4659 0.8848 0.0120
vn 0.4354 0.8948 0.0987
vn 0.4071 0.9130 0.0266
vn 0.4192 0.9077 -0.0190
vn -1.0000 0.0000 0.0000
vn -0.0000 -0.0000 1.0000
usemtl sand
s 1
f 23//1 22//2 12//3 13//4
f 39//5 38//6 10//7 11//8
f 55//9 54//10 9//11 8//12
f 63//13 23//1 13//4 14//14
f 22//15 39//5 11//8 12//16
f 38//6 55//9 8//12 10//7
f 3//17 1//18 62//19 31//20
f 31//20 62//19 61//21 32//22
f 32//22 61//21 60//23 33//24
f 33//24 60//23 59//25 34//26
f 34//26 59//25 58//27 35//28
f 35//28 58//27 57//29 36//30
f 36//30 57//29 56//31 37//32
f 37//32 56//31 55//9 38//6
f 5//33 4//34 46//35 15//36
f 15//36 46//35 45//37 16//38
f 16//38 45//37 44//39 17//40
f 17//40 44//39 43//41 18//42
f 18//42 43//41 42//43 19//44
f 19//44 42//43 41//45 20//46
f 20//46 41//45 40//47 21//48
f 21//48 40//47 39//5 22//15
f 7//49 6//50 30//51 70//52
f 70//52 30//51 29//53 69//54
f 69//54 29//53 28//55 68//56
f 68//56 28//55 27//57 67//58
f 67//58 27//57 26//59 66//60
f 66//60 26//59 25//61 65//62
f 65//62 25//61 24//63 64//64
f 64//64 24//63 23//1 63//13
f 1//18 2//65 47//66 62//19
f 62//19 47//66 48//67 61//21
f 61//21 48//67 49//68 60//23
f 60//23 49//68 50//69 59//25
f 59//25 50//69 51//70 58//27
f 58//27 51//70 52//71 57//29
f 57//29 52//71 53//72 56//31
f 56//31 53//72 54//10 55//9
f 4//34 3//17 31//20 46//35
f 46//35 31//20 32//22 45//37
f 45//37 32//22 33//24 44//39
f 44//39 33//24 34//26 43//41
f 43//41 34//26 35//28 42//43
f 42//43 35//28 36//30 41//45
f 41//45 36//30 37//32 40//47
f 40//47 37//32 38//6 39//5
f 6//50 5//73 15//74 30//51
f 30//51 15//74 16//75 29//53
f 29//53 16//75 17//76 28//55
f 28//55 17//76 18//77 27//57
f 27//57 18//77 19//78 26//59
f 26//59 19//78 20//79 25//61
f 25//61 20//79 21//80 24//63
f 24//63 21//80 22//2 23//1
f 69//81 68//81 78//81 79//81
f 66//81 65//81 75//81 76//81
f 63//81 14//81 72//81 73//81
f 70//81 69//81 79//81 80//81
f 67//81 66//81 76//81 77//81
f 64//81 63//81 73//81 74//81
f 68//81 67//81 77//81 78//81
f 65//81 64//81 74//81 75//81
f 7//81 70//81 80//81 71//81
f 71//81 80//81 90//81 81//81
f 79//81 78//81 88//81 89//81
f 76//81 75//81 85//81 86//81
f 73//81 72//81 82//81 83//81
f 80//81 79//81 89//81 90//81
f 77//81 76//81 86//81 87//81
f 74//81 73//81 83//81 84//81
f 78//81 77//81 87//81 88//81
f 75//81 74//81 84//81 85//81
f 1//82 3//82 4//82 5//82 6//82 7//82 71//82 81//82 2//82
