# Blender v2.79 (sub 0) OBJ File: 'pouet3.blend'
# www.blender.org
mtllib effect_splash.mtl
o effect_splash_Mesh
v 3.939633 64.774841 1.105665
v 2.956021 59.473339 -1.868437
v 2.853700 35.195938 -2.668264
v 3.819012 33.771839 -0.578166
v 1.097150 38.642208 -4.253251
v -0.877459 49.090160 -4.562819
v -3.843889 51.850285 -3.415421
v -4.346922 43.442139 -4.786325
v -3.683898 51.810059 -7.027742
v -3.761136 40.475800 -6.794808
v -1.575975 41.662102 -8.119070
v -2.091513 53.653862 -7.859514
v -1.133226 8.215910 -2.803925
v -0.003474 29.925098 -5.456975
v 0.295812 41.448586 -6.830194
v 1.290181 6.972246 -2.241327
v 7.514234 0.344355 -3.260713
v 2.537975 6.595436 -0.483000
v 10.171896 -3.947995 -0.957768
v 2.570749 7.681644 1.286970
v 1.852110 6.900211 2.779462
v -1.908992 6.807008 3.595772
v -10.020804 -3.947995 5.493286
v -3.763367 6.727137 1.128043
v -3.442695 9.019242 -1.199900
v -3.714861 3.718460 -3.525796
v 7.264505 -3.947995 7.970702
v 9.635555 -3.947995 3.982147
v 6.792790 -0.079208 5.930125
v -1.957880 -3.947995 11.220816
v 4.384060 -3.947995 10.142375
v -8.862685 -3.947995 -6.223422
v 0.847594 -3.947995 -10.368795
v 7.732616 -3.947995 -6.929152
v -1.910224 25.433926 4.119514
v 0.580373 25.757721 4.362752
v 2.714491 38.829254 3.387500
v 3.749580 33.520111 1.271021
v 2.942071 49.286240 2.778561
v 3.400322 65.756195 3.451886
v -1.874818 65.795021 -4.044580
v -3.208131 83.309029 -2.775198
v 1.209592 61.345482 -3.414889
v -3.851667 85.852554 -1.252515
v 0.954761 83.592300 -0.809393
v 3.096802 85.719116 -0.364537
v 1.377067 89.915276 1.298800
v 5.366874 83.880653 0.838831
v -3.191453 84.294098 0.881993
v 0.713153 81.682205 4.334085
v -3.870763 58.307869 3.340515
v -5.400214 65.082016 1.244100
v -3.575481 35.286015 4.275170
v -3.484105 50.107502 7.434176
v 6.662145 84.168732 3.855616
v 5.603602 83.803757 5.923691
v 6.112003 98.010239 3.255676
v 6.170098 98.436043 3.352148
v 4.668097 98.270859 5.270808
v 2.727575 85.133476 5.821182
v 3.575259 97.375443 3.361113
v 1.657187 66.108452 4.297008
v -4.587796 27.647041 -0.871099
v -2.076051 47.745632 8.933224
v -0.239099 47.002991 8.962797
v -2.234284 71.405334 10.274955
v -2.909736 75.483505 7.931301
v -0.059297 73.204445 10.487355
v -0.358712 80.027504 7.909575
v 1.589047 67.455719 8.048930
v 1.463904 47.756393 7.963441
v 1.885563 54.257042 5.637802
v -2.628754 64.421455 5.427042
v 0.006885 69.302261 5.668206
v -5.502040 38.671909 1.213065
v -6.057015 50.826714 -0.948150
v -9.309748 51.188866 -2.838597
v -8.451933 46.309258 -4.723447
v -9.892550 53.805138 -5.493896
v -8.189599 51.684681 -6.356948
v -8.735337 65.920242 -2.069142
v -7.725084 67.524139 -5.480191
v -5.049896 67.530037 -5.736775
v -5.610376 51.788982 -4.880531
vn 0.5087 0.0646 -0.8585
vn 0.8248 0.0085 -0.5653
vn 0.4264 0.3582 -0.8305
vn -0.9622 -0.0004 -0.2721
vn 0.1816 0.0316 -0.9828
vn -0.7837 -0.0736 -0.6167
vn -0.9398 0.3413 -0.0147
vn 0.0458 -0.0518 -0.9976
vn -0.2665 0.8881 -0.3746
vn 0.6253 -0.0891 -0.7753
vn 0.8230 -0.0016 -0.5680
vn 0.4909 0.2687 -0.8287
vn 0.7347 0.5811 -0.3500
vn 0.8625 0.5025 -0.0598
vn 0.5568 0.5558 -0.6172
vn 0.9166 0.3577 -0.1784
vn 0.6378 0.5838 0.5022
vn 0.6446 0.3134 0.6973
vn 0.9617 -0.1636 0.2199
vn 0.9793 -0.0255 -0.2008
vn 0.8265 0.0282 -0.5622
vn 0.9973 -0.0357 -0.0645
vn -0.1191 0.0224 -0.9926
vn -0.4988 0.5389 -0.6788
vn -0.8757 0.0204 -0.4824
vn 0.0482 0.5873 -0.8079
vn 0.6589 0.4122 0.6292
vn 0.2388 0.6433 0.7274
vn -0.1341 0.5941 0.7931
vn 0.8358 0.5045 0.2166
vn -0.6652 0.5571 -0.4971
vn -0.9778 -0.0527 -0.2027
vn -0.7579 0.5489 0.3525
vn -0.9405 0.2772 0.1965
vn -0.3359 0.3333 0.8809
vn 0.9614 -0.0293 0.2736
vn 0.8851 -0.0463 0.4630
vn 0.3648 0.0295 -0.9306
vn -0.1399 0.3233 -0.9359
vn -0.4111 0.9012 -0.1371
vn 0.1470 0.2850 -0.9472
vn 0.1441 0.2012 -0.9689
vn -0.6491 0.6243 -0.4346
vn -0.7779 0.4261 -0.4619
vn -0.6044 0.0969 0.7908
vn -0.8828 0.0533 0.4667
vn -0.6681 0.5081 0.5435
vn -0.6992 0.0514 0.7130
vn -0.8250 -0.0817 0.5591
vn -0.9241 -0.0309 0.3808
vn 0.6955 0.0057 -0.7185
vn 0.9976 -0.0436 0.0529
vn 0.5191 -0.0649 0.8522
vn -0.0586 0.7387 0.6714
vn 0.7593 0.5824 -0.2903
vn 0.9105 0.0015 0.4134
vn 0.7569 -0.1195 0.6425
vn 0.5734 -0.0160 0.8191
vn -0.4283 0.0761 0.9004
vn -0.1097 -0.0750 0.9911
vn -0.4622 -0.1193 0.8787
vn -0.6070 0.0563 0.7927
vn -0.8942 0.4305 -0.1228
vn 0.1751 0.9831 -0.0527
vn 0.3688 0.2462 0.8963
vn 0.9894 0.0635 0.1307
vn 0.8406 -0.0429 0.5399
vn 0.9764 0.0239 0.2145
vn -0.9892 0.1332 0.0610
vn -0.1528 -0.9742 -0.1658
vn -0.8236 -0.1846 0.5363
vn -0.8939 -0.0032 -0.4483
vn -0.0423 -0.1531 -0.9873
vn -0.9422 0.1236 0.3115
vn -0.6330 0.1847 -0.7517
vn 0.1886 0.0697 -0.9796
vn 0.5094 -0.1652 -0.8445
vn -0.8782 -0.2140 0.4277
vn -0.9826 -0.0321 0.1829
vn 0.8468 0.0483 -0.5297
vn 0.6854 0.7057 -0.1794
vn 0.2834 -0.0905 0.9547
vn 0.2815 -0.1397 0.9493
usemtl water
s 1
f 43//1 5//2 6//3
f 6//3 8//4 7//5
f 10//6 9//7 11//8
f 12//9 11//8 9//7
f 14//10 3//11 16//12
f 17//13 19//14 34//15
f 17//13 18//16 29//17
f 21//18 18//16 20//19
f 4//20 3//11 2//21 1//22
f 13//23 26//24 25//25
f 33//26 26//24 16//12
f 27//27 29//17 31//28
f 29//17 30//29 31//28
f 29//17 27//27 28//30
f 33//26 32//31 26//24
f 10//6 13//23 25//25
f 25//25 63//32 10//6
f 32//31 23//33 24//34
f 30//29 22//35 23//33
f 21//18 22//35 30//29
f 21//18 30//29 29//17
f 21//18 38//36 37//37
f 20//19 38//36 21//18
f 18//16 21//18 29//17
f 17//13 33//26 16//12
f 43//1 41//38 42//39
f 44//40 45//41 42//39
f 46//42 2//21 45//41
f 43//1 45//41 2//21
f 61//43 47//44 50//45
f 51//46 49//47 52//48
f 53//49 54//50 51//46
f 6//3 41//38 43//1
f 5//2 3//11 14//10
f 4//20 1//22 38//36
f 1//22 48//51 55//52
f 1//22 55//52 56//53
f 61//43 59//54 57//55
f 55//52 57//55 56//53
f 59//54 56//53 57//55
f 39//56 1//22 40//57
f 62//58 40//57 56//53
f 1//22 56//53 40//57
f 48//51 1//22 46//42
f 43//1 42//39 45//41
f 56//53 60//59 62//58
f 50//45 62//58 60//59
f 60//59 59//54 61//43
f 22//35 35//60 53//49
f 54//50 64//61 66//62
f 67//63 54//50 66//62
f 69//64 68//65 70//66
f 71//67 72//68 70//66
f 54//50 67//63 73//69
f 78//70 77//71 79//72
f 80//73 78//70 79//72
f 79//72 77//71 81//74
f 44//40 82//75 81//74
f 83//76 84//77 82//75
f 78//70 80//73 84//77
f 76//78 75//79 52//48
f 15//80 11//8 12//9
f 15//80 6//3 5//2
f 50//45 49//47 51//46
f 76//78 52//48 81//74
f 52//48 44//40 81//74
f 8//4 84//77 7//5
f 78//70 76//78 77//71
f 84//77 83//76 7//5
f 41//38 7//5 83//76
f 80//73 79//72 82//75
f 79//72 81//74 82//75
f 72//68 62//58 74//81
f 13//23 14//10 16//12
f 20//19 18//16 38//36
f 25//25 24//34 63//32
f 14//10 11//8 15//80
f 45//41 49//47 47//44
f 52//48 49//47 44//40
f 40//57 62//58 39//56
f 72//68 39//56 62//58
f 51//46 54//50 73//69
f 21//18 37//37 36//82
f 71//67 36//82 37//37
f 75//79 24//34 53//49
f 65//83 36//82 71//67
f 53//49 35//60 64//61
f 37//37 39//56 72//68
f 75//79 53//49 51//46
f 52//48 75//79 51//46
f 70//66 72//68 74//81
f 69//64 70//66 74//81
f 11//8 13//23 10//6
f 11//8 14//10 13//23
f 14//10 15//80 5//2
f 18//16 17//13 16//12
f 26//24 24//34 25//25
f 13//23 16//12 26//24
f 17//13 34//15 33//26
f 26//24 32//31 24//34
f 22//35 24//34 23//33
f 22//35 53//49 24//34
f 22//35 36//82 35//60
f 18//16 3//11 4//20
f 38//36 18//16 4//20
f 41//38 6//3 7//5
f 45//41 44//40 49//47
f 47//44 49//47 50//45
f 56//53 59//54 60//59
f 55//52 48//51 57//55
f 1//22 2//21 46//42
f 46//42 47//44 61//43
f 61//43 50//45 60//59
f 63//32 24//34 75//79
f 84//77 80//73 82//75
f 76//78 78//70 84//77
f 6//3 15//80 12//9
f 8//4 9//7 10//6
f 83//76 82//75 44//40
f 3//11 18//16 16//12
f 83//76 42//39 41//38
f 50//45 74//81 62//58
f 71//67 37//37 72//68
f 53//49 64//61 54//50
f 43//1 2//21 3//11 5//2
f 6//3 12//9 9//7 8//4
f 39//56 37//37 38//36 1//22
f 17//13 29//17 28//30 19//14
f 46//42 61//43 57//55 48//51
f 46//42 45//41 47//44
f 65//83 64//61 35//60 36//82
f 36//82 22//35 21//18
f 65//83 68//65 66//62 64//61
f 69//64 67//63 66//62 68//65
f 73//69 67//63 69//64 74//81
f 50//45 51//46 73//69 74//81
f 8//4 75//79 76//78 84//77
f 77//71 76//78 81//74
f 10//6 63//32 75//79 8//4
f 70//66 68//65 65//83 71//67
f 83//76 44//40 42//39
