# Blender v2.79 (sub 0) OBJ File: 'pouet3.blend'
# www.blender.org
mtllib effect_smoke.mtl
o effect_smoke_Mesh.006
v 5.700918 1.108211 -5.434057
v 8.302497 2.125066 -2.809251
v 8.317411 -1.143249 -3.001763
v 7.672428 -2.306374 0.566816
v 4.748462 -0.887532 4.062134
v 1.883176 -5.753542 1.047635
v 6.243768 -3.222498 -2.969156
v 0.989726 -6.398261 5.501614
v 3.706410 4.208606 6.348951
v 1.239950 7.381774 5.507808
v 3.996978 6.808298 3.094257
v -1.677308 6.934629 1.138089
v -1.716221 5.117588 -1.775509
v 1.287849 7.569795 0.964767
v 7.836600 2.089897 0.485537
v -6.830429 3.717634 -3.005469
v -5.139831 3.368593 -6.557314
v -6.386267 -0.102648 -8.320323
v -2.872848 0.825334 -7.997778
v -3.197859 -2.441875 -7.774815
v 1.072531 1.318118 -5.305514
v -9.077703 -0.111620 -3.405034
v -8.378795 -2.689558 -4.990114
v -4.778217 -5.088854 -1.518584
v -5.810089 -4.071601 -6.298861
v -2.835891 -8.028111 2.633108
v -6.867076 -5.740772 3.798480
v -6.103754 -4.522348 6.849475
v -6.503930 2.227403 1.169298
v -7.360682 -2.235400 0.121702
v -1.122874 6.392227 6.045835
v -5.552125 -0.087680 5.998790
v -2.088748 -1.477238 8.402539
v -2.900629 -6.683856 7.307100
v 1.108889 -3.389291 7.170162
v 0.220041 -4.440130 -2.959757
v -8.028174 1.720254 -6.187850
vn 0.5618 0.2533 0.7875
vn 0.7352 -0.2991 0.6083
vn 0.8984 0.3175 0.3033
vn 0.5099 -0.2553 0.8214
vn 0.5675 -0.7233 0.3935
vn 0.6302 0.7730 0.0722
vn 0.1130 0.8319 0.5433
vn -0.1517 0.8659 -0.4766
vn -0.4770 0.8620 -0.1715
vn 0.0894 0.9471 -0.3081
vn 0.8289 0.4559 -0.3240
vn -0.5807 0.8127 0.0473
vn -0.8215 0.4986 0.2767
vn 0.2791 -0.4711 -0.8368
vn -0.2695 -0.8073 -0.5249
vn -0.3964 0.0165 -0.9179
vn 0.3083 0.2718 -0.9116
vn 0.2229 -0.7812 -0.5830
vn -0.3901 -0.8777 -0.2782
vn -0.8263 -0.5051 -0.2492
vn -0.3540 0.6762 0.6461
vn -0.7664 0.2961 0.5701
vn -0.8518 -0.5154 0.0933
vn -0.9534 -0.2449 0.1763
vn -0.0889 -0.9889 -0.1193
vn -0.0839 -0.6901 0.7188
vn 0.4826 -0.8709 -0.0928
vn -0.7782 0.4252 -0.4622
vn -0.9945 0.0723 0.0755
vn -0.1091 0.7923 -0.6002
vn 0.2867 0.1745 -0.9420
vn 0.8626 -0.3184 -0.3931
vn 0.4121 -0.7427 -0.5277
vn 0.8011 -0.4865 0.3486
vn 0.3202 0.2779 -0.9056
vn -0.7263 -0.2037 0.6564
vn -0.0860 0.0643 0.9942
usemtl smoke
s 1
f 9//1 5//2 15//3
f 5//2 35//4 8//5
f 9//1 11//6 10//7
f 13//8 12//9 14//10
f 15//3 2//11 14//10
f 15//3 14//10 11//6
f 13//8 16//12 29//13
f 20//14 25//15 18//16
f 21//17 36//18 20//14
f 25//15 24//19 23//20
f 31//21 29//13 32//22
f 27//23 30//24 24//19
f 26//25 8//5 34//26
f 36//18 6//27 26//25
f 23//20 37//28 18//16
f 22//29 29//13 16//12
f 30//24 22//29 23//20
f 23//20 18//16 25//15
f 17//30 37//28 16//12
f 12//9 13//8 29//13
f 1//31 3//32 7//33
f 4//34 5//2 6//27
f 36//18 24//19 25//15
f 9//1 10//7 31//21
f 2//11 1//31 14//10
f 26//25 27//23 24//19
f 17//30 21//17 19//35
f 14//10 1//31 21//17
f 9//1 15//3 11//6
f 35//4 5//2 9//1
f 4//34 15//3 5//2
f 18//16 17//30 19//35
f 36//18 26//25 24//19
f 34//26 27//23 26//25
f 27//23 34//26 28//36
f 31//21 32//22 33//37
f 33//37 28//36 34//26
f 34//26 35//4 33//37
f 35//4 34//26 8//5
f 7//33 6//27 36//18
f 22//29 16//12 37//28
f 4//34 7//33 3//32
f 5//2 8//5 6//27
f 33//37 35//4 9//1
f 6//27 8//5 26//25
f 23//20 22//29 37//28
f 3//32 1//31 2//11
f 28//36 33//37 32//22
f 19//35 21//17 20//14
f 13//8 21//17 17//30
f 25//15 20//14 36//18
f 31//21 12//9 29//13
f 30//24 23//20 24//19
f 13//8 14//10 21//17
f 9//1 31//21 33//37
f 17//30 18//16 37//28
f 1//31 7//33 36//18 21//17
f 16//12 13//8 17//30
f 18//16 19//35 20//14
f 10//7 14//10 12//9 31//21
f 27//23 28//36 32//22 29//13
f 3//32 2//11 15//3 4//34
f 30//24 29//13 22//29
f 14//10 10//7 11//6
f 27//23 29//13 30//24
f 4//34 6//27 7//33
